<?xml version="1.0" encoding="UTF-8" standalone="no"?>
<svg
   height="287.90mm"
   viewBox="0.0 0.0 170.90 287.90"
   width="170.90mm"
   version="1.1"
   id="svg41"
   sodipodi:docname="piano_warlock_box_brains_lasercut.svg"
   inkscape:version="1.4.2 (f4327f4, 2025-05-13)"
   xmlns:inkscape="http://www.inkscape.org/namespaces/inkscape"
   xmlns:sodipodi="http://sodipodi.sourceforge.net/DTD/sodipodi-0.dtd"
   xmlns="http://www.w3.org/2000/svg"
   xmlns:svg="http://www.w3.org/2000/svg"
   xmlns:rdf="http://www.w3.org/1999/02/22-rdf-syntax-ns#"
   xmlns:cc="http://creativecommons.org/ns#"
   xmlns:dc="http://purl.org/dc/elements/1.1/">
  <defs
     id="defs41" />
  <sodipodi:namedview
     id="namedview41"
     pagecolor="#ffffff"
     bordercolor="#999999"
     borderopacity="1"
     inkscape:showpageshadow="2"
     inkscape:pageopacity="0"
     inkscape:pagecheckerboard="0"
     inkscape:deskcolor="#d1d1d1"
     inkscape:document-units="mm"
     inkscape:zoom="0.34701407"
     inkscape:cx="442.34517"
     inkscape:cy="665.67906"
     inkscape:window-width="1280"
     inkscape:window-height="778"
     inkscape:window-x="-6"
     inkscape:window-y="-6"
     inkscape:window-maximized="1"
     inkscape:current-layer="svg41" />
  <!--
ElectronicsBox - Closed box with screw on top and mounting holes

Created with Boxes.py (https://boxes.hackerspace-bamberg.de/)
Creation date: 2025-10-18 16:17:35
Command line (remove spaces between dashes): boxes ElectronicsBox - -x=60 - -y=77 - -h=20 - -outside=0
Url: https://boxes.hackerspace-bamberg.de/ElectronicsBox?FingerJoint_style=rectangular&FingerJoint_surroundingspaces=2.0&FingerJoint_bottom_lip=0.0&FingerJoint_edge_width=1.0&FingerJoint_extra_length=0.0&FingerJoint_finger=2.0&FingerJoint_play=0.0&FingerJoint_space=2.0&FingerJoint_width=1.0&x=60&y=77&h=20&outside=0&triangle=25.0&d1=2.0&d2=3.0&d3=3.0&outsidemounts=0&outsidemounts=1&holedist=7.0&thickness=3.0&format=svg&tabs=0.0&qr_code=0&debug=0&labels=0&labels=1&reference=100.0&inner_corners=loop&burn=0.1&language=en&render=2
Url short: https://boxes.hackerspace-bamberg.de/ElectronicsBox?x=60&y=77&h=20&outside=0
SettingsUrl: https://boxes.hackerspace-bamberg.de/ElectronicsBox?FingerJoint_style=rectangular&FingerJoint_surroundingspaces=2.0&FingerJoint_bottom_lip=0.0&FingerJoint_edge_width=1.0&FingerJoint_extra_length=0.0&FingerJoint_finger=2.0&FingerJoint_play=0.0&FingerJoint_space=2.0&FingerJoint_width=1.0&x=60&y=77&h=20&outside=0&triangle=25.0&d1=2.0&d2=3.0&d3=3.0&outsidemounts=0&outsidemounts=1&holedist=7.0&thickness=3.0&format=svg&tabs=0.0&qr_code=0&debug=0&labels=0&labels=1&reference=100.0&inner_corners=loop&burn=0.1&language=en&render=2
SettingsUrl short: https://boxes.hackerspace-bamberg.de/ElectronicsBox?x=60&y=77&h=20&outside=0
-->
  <title
     id="title1">ElectronicsBox</title>
  <metadata
     id="metadata1">
    <rdf:RDF>
      <cc:Work>
        <dc:title>ElectronicsBox</dc:title>
        <dc:date>2025-10-18 16:17:35</dc:date>
        <dc:source>https://boxes.hackerspace-bamberg.de/ElectronicsBox?FingerJoint_style=rectangular&amp;FingerJoint_surroundingspaces=2.0&amp;FingerJoint_bottom_lip=0.0&amp;FingerJoint_edge_width=1.0&amp;FingerJoint_extra_length=0.0&amp;FingerJoint_finger=2.0&amp;FingerJoint_play=0.0&amp;FingerJoint_space=2.0&amp;FingerJoint_width=1.0&amp;x=60&amp;y=77&amp;h=20&amp;outside=0&amp;triangle=25.0&amp;d1=2.0&amp;d2=3.0&amp;d3=3.0&amp;outsidemounts=0&amp;outsidemounts=1&amp;holedist=7.0&amp;thickness=3.0&amp;format=svg&amp;tabs=0.0&amp;qr_code=0&amp;debug=0&amp;labels=0&amp;labels=1&amp;reference=100.0&amp;inner_corners=loop&amp;burn=0.1&amp;language=en&amp;render=2</dc:source>
        <dc:source>https://boxes.hackerspace-bamberg.de/ElectronicsBox?x=60&amp;y=77&amp;h=20&amp;outside=0</dc:source>
        <dc:description>Closed box with screw on top and mounting holes

Created with Boxes.py (https://boxes.hackerspace-bamberg.de/)
Command line: boxes ElectronicsBox --FingerJoint_style=rectangular --FingerJoint_surroundingspaces=2.0 --FingerJoint_bottom_lip=0.0 --FingerJoint_edge_width=1.0 --FingerJoint_extra_length=0.0 --FingerJoint_finger=2.0 --FingerJoint_play=0.0 --FingerJoint_space=2.0 --FingerJoint_width=1.0 --x=60 --y=77 --h=20 --outside=0 --triangle=25.0 --d1=2.0 --d2=3.0 --d3=3.0 --outsidemounts=0 --outsidemounts=1 --holedist=7.0 --thickness=3.0 --format=svg --tabs=0.0 --qr_code=0 --debug=0 --labels=0 --labels=1 --reference=100.0 --inner_corners=loop --burn=0.1
Command line short: boxes ElectronicsBox --x=60 --y=77 --h=20 --outside=0
Url: https://boxes.hackerspace-bamberg.de/ElectronicsBox?FingerJoint_style=rectangular&amp;FingerJoint_surroundingspaces=2.0&amp;FingerJoint_bottom_lip=0.0&amp;FingerJoint_edge_width=1.0&amp;FingerJoint_extra_length=0.0&amp;FingerJoint_finger=2.0&amp;FingerJoint_play=0.0&amp;FingerJoint_space=2.0&amp;FingerJoint_width=1.0&amp;x=60&amp;y=77&amp;h=20&amp;outside=0&amp;triangle=25.0&amp;d1=2.0&amp;d2=3.0&amp;d3=3.0&amp;outsidemounts=0&amp;outsidemounts=1&amp;holedist=7.0&amp;thickness=3.0&amp;format=svg&amp;tabs=0.0&amp;qr_code=0&amp;debug=0&amp;labels=0&amp;labels=1&amp;reference=100.0&amp;inner_corners=loop&amp;burn=0.1&amp;language=en&amp;render=2
Url short: https://boxes.hackerspace-bamberg.de/ElectronicsBox?x=60&amp;y=77&amp;h=20&amp;outside=0
SettingsUrl: https://boxes.hackerspace-bamberg.de/ElectronicsBox?FingerJoint_style=rectangular&amp;FingerJoint_surroundingspaces=2.0&amp;FingerJoint_bottom_lip=0.0&amp;FingerJoint_edge_width=1.0&amp;FingerJoint_extra_length=0.0&amp;FingerJoint_finger=2.0&amp;FingerJoint_play=0.0&amp;FingerJoint_space=2.0&amp;FingerJoint_width=1.0&amp;x=60&amp;y=77&amp;h=20&amp;outside=0&amp;triangle=25.0&amp;d1=2.0&amp;d2=3.0&amp;d3=3.0&amp;outsidemounts=0&amp;outsidemounts=1&amp;holedist=7.0&amp;thickness=3.0&amp;format=svg&amp;tabs=0.0&amp;qr_code=0&amp;debug=0&amp;labels=0&amp;labels=1&amp;reference=100.0&amp;inner_corners=loop&amp;burn=0.1&amp;language=en&amp;render=2
SettingsUrl short: https://boxes.hackerspace-bamberg.de/ElectronicsBox?x=60&amp;y=77&amp;h=20&amp;outside=0
</dc:description>
      </cc:Work>
    </rdf:RDF>
  </metadata>
  <g
     id="p-2"
     style="fill:none;stroke-linecap:round;stroke-linejoin:round;">
    <path
       d="M 93.300 243.000 H 90.400 C 90.300 243.000 90.400 243.100 90.400 243.000 V 240.200 C 90.400 240.100 90.300 240.200 90.400 240.200 H 96.200 C 96.300 240.200 96.200 240.100 96.200 240.200 V 243.000 C 96.200 243.100 96.300 243.000 96.200 243.000 H 93.300 Z"
       stroke="rgb(0,0,255)"
       stroke-width="0.20"
       id="path5" />
    <path
       d="M 145.300 240.200 H 148.200 C 148.300 240.200 148.200 240.100 148.200 240.200 V 243.000 C 148.200 243.100 148.300 243.000 148.200 243.000 H 142.400 C 142.300 243.000 142.400 243.100 142.400 243.000 V 240.200 C 142.400 240.100 142.300 240.200 142.400 240.200 H 145.300 Z"
       stroke="rgb(0,0,255)"
       stroke-width="0.20"
       id="path6" />
    <text
       dominant-baseline="hanging"
       font-size="4px"
       style="font-family: sans-serif ; font-weight: normal; font-style: normal; fill: rgb(255,0,0)"
       text-anchor="middle"
       transform="matrix( 1.000 0.000 0.000 1.000 119.300 249.700 )"
       id="text6">Wall 2</text>
    <path
       d="M 80.800 263.200 H 92.200 C 92.300 263.200 92.200 263.100 92.200 263.200 V 266.100 C 92.200 266.155 92.245 266.200 92.300 266.200 H 98.300 C 98.355 266.200 98.400 266.155 98.400 266.100 V 263.200 C 98.400 263.100 98.300 263.200 98.400 263.200 H 104.200 C 104.300 263.200 104.200 263.100 104.200 263.200 V 266.100 C 104.200 266.155 104.245 266.200 104.300 266.200 H 110.300 C 110.355 266.200 110.400 266.155 110.400 266.100 V 263.200 C 110.400 263.100 110.300 263.200 110.400 263.200 H 116.200 C 116.300 263.200 116.200 263.100 116.200 263.200 V 266.100 C 116.200 266.155 116.245 266.200 116.300 266.200 H 122.300 C 122.355 266.200 122.400 266.155 122.400 266.100 V 263.200 C 122.400 263.100 122.300 263.200 122.400 263.200 H 128.200 C 128.300 263.200 128.200 263.100 128.200 263.200 V 266.100 C 128.200 266.155 128.245 266.200 128.300 266.200 H 134.300 C 134.355 266.200 134.400 266.155 134.400 266.100 V 263.200 C 134.400 263.100 134.300 263.200 134.400 263.200 H 140.200 C 140.300 263.200 140.200 263.100 140.200 263.200 V 266.100 C 140.200 266.155 140.245 266.200 140.300 266.200 H 146.300 C 146.355 266.200 146.400 266.155 146.400 266.100 V 263.200 C 146.400 263.100 146.300 263.200 146.400 263.200 H 157.800 C 157.855 263.200 157.900 263.155 157.900 263.100 V 253.200 C 157.900 253.100 157.800 253.200 157.900 253.200 H 160.800 C 160.855 253.200 160.900 253.155 160.900 253.100 V 247.100 C 160.900 247.045 160.855 247.000 160.800 247.000 H 157.900 C 157.800 247.000 157.900 247.100 157.900 247.000 V 237.100 C 157.900 237.045 157.855 237.000 157.800 237.000 H 80.800 C 80.745 237.000 80.700 237.045 80.700 237.100 V 247.000 C 80.700 247.100 80.800 247.000 80.700 247.000 H 77.800 C 77.745 247.000 77.700 247.045 77.700 247.100 V 253.100 C 77.700 253.155 77.745 253.200 77.800 253.200 H 80.700 C 80.800 253.200 80.700 253.100 80.700 253.200 V 263.100 C 80.700 263.155 80.745 263.200 80.800 263.200"
       stroke="rgb(0,0,0)"
       stroke-width="0.20"
       id="path7" />
  </g>
  <g
     id="p-3"
     style="fill:none;stroke-linecap:round;stroke-linejoin:round;">
    <path
       d="M 93.300 212.300 H 90.400 C 90.300 212.300 90.400 212.400 90.400 212.300 V 209.500 C 90.400 209.400 90.300 209.500 90.400 209.500 H 96.200 C 96.300 209.500 96.200 209.400 96.200 209.500 V 212.300 C 96.200 212.400 96.300 212.300 96.200 212.300 H 93.300 Z"
       stroke="rgb(0,0,255)"
       stroke-width="0.20"
       id="path8" />
    <path
       d="M 145.300 209.500 H 148.200 C 148.300 209.500 148.200 209.400 148.200 209.500 V 212.300 C 148.200 212.400 148.300 212.300 148.200 212.300 H 142.400 C 142.300 212.300 142.400 212.400 142.400 212.300 V 209.500 C 142.400 209.400 142.300 209.500 142.400 209.500 H 145.300 Z"
       stroke="rgb(0,0,255)"
       stroke-width="0.20"
       id="path9" />
    <text
       dominant-baseline="hanging"
       font-size="4px"
       style="font-family: sans-serif ; font-weight: normal; font-style: normal; fill: rgb(255,0,0)"
       text-anchor="middle"
       transform="matrix( 1.000 0.000 0.000 1.000 119.300 219.000 )"
       id="text9">Wall 4</text>
    <path
       d="M 80.800 232.500 H 92.200 C 92.300 232.500 92.200 232.400 92.200 232.500 V 235.400 C 92.200 235.455 92.245 235.500 92.300 235.500 H 98.300 C 98.355 235.500 98.400 235.455 98.400 235.400 V 232.500 C 98.400 232.400 98.300 232.500 98.400 232.500 H 104.200 C 104.300 232.500 104.200 232.400 104.200 232.500 V 235.400 C 104.200 235.455 104.245 235.500 104.300 235.500 H 110.300 C 110.355 235.500 110.400 235.455 110.400 235.400 V 232.500 C 110.400 232.400 110.300 232.500 110.400 232.500 H 116.200 C 116.300 232.500 116.200 232.400 116.200 232.500 V 235.400 C 116.200 235.455 116.245 235.500 116.300 235.500 H 122.300 C 122.355 235.500 122.400 235.455 122.400 235.400 V 232.500 C 122.400 232.400 122.300 232.500 122.400 232.500 H 128.200 C 128.300 232.500 128.200 232.400 128.200 232.500 V 235.400 C 128.200 235.455 128.245 235.500 128.300 235.500 H 134.300 C 134.355 235.500 134.400 235.455 134.400 235.400 V 232.500 C 134.400 232.400 134.300 232.500 134.400 232.500 H 140.200 C 140.300 232.500 140.200 232.400 140.200 232.500 V 235.400 C 140.200 235.455 140.245 235.500 140.300 235.500 H 146.300 C 146.355 235.500 146.400 235.455 146.400 235.400 V 232.500 C 146.400 232.400 146.300 232.500 146.400 232.500 H 157.800 C 157.855 232.500 157.900 232.455 157.900 232.400 V 222.500 C 157.900 222.400 157.800 222.500 157.900 222.500 H 160.800 C 160.855 222.500 160.900 222.455 160.900 222.400 V 216.400 C 160.900 216.345 160.855 216.300 160.800 216.300 H 157.900 C 157.800 216.300 157.900 216.400 157.900 216.300 V 206.400 C 157.900 206.345 157.855 206.300 157.800 206.300 H 80.800 C 80.745 206.300 80.700 206.345 80.700 206.400 V 216.300 C 80.700 216.400 80.800 216.300 80.700 216.300 H 77.800 C 77.745 216.300 77.700 216.345 77.700 216.400 V 222.400 C 77.700 222.455 77.745 222.500 77.800 222.500 H 80.700 C 80.800 222.500 80.700 222.400 80.700 222.500 V 232.400 C 80.700 232.455 80.745 232.500 80.800 232.500"
       stroke="rgb(0,0,0)"
       stroke-width="0.20"
       id="path10" />
  </g>
  <g
     id="p-4"
     style="fill:none;stroke-linecap:round;stroke-linejoin:round;">
    <path
       d="M 25.600 212.300 H 22.700 C 22.600 212.300 22.700 212.400 22.700 212.300 V 209.500 C 22.700 209.400 22.600 209.500 22.700 209.500 H 28.500 C 28.600 209.500 28.500 209.400 28.500 209.500 V 212.300 C 28.500 212.400 28.600 212.300 28.500 212.300 H 25.600 Z"
       stroke="rgb(0,0,255)"
       stroke-width="0.20"
       id="path11" />
    <path
       d="M 60.600 209.500 H 63.500 C 63.600 209.500 63.500 209.400 63.500 209.500 V 212.300 C 63.500 212.400 63.600 212.300 63.500 212.300 H 57.700 C 57.600 212.300 57.700 212.400 57.700 212.300 V 209.500 C 57.700 209.400 57.600 209.500 57.700 209.500 H 60.600 Z"
       stroke="rgb(0,0,255)"
       stroke-width="0.20"
       id="path12" />
    <text
       dominant-baseline="hanging"
       font-size="4px"
       style="font-family: sans-serif ; font-weight: normal; font-style: normal; fill: rgb(255,0,0)"
       text-anchor="middle"
       transform="matrix( 1.000 0.000 0.000 1.000 43.100 219.000 )"
       id="text12">Wall 3</text>
    <path
       d="M 13.100 232.500 H 22.000 C 22.100 232.500 22.000 232.400 22.000 232.500 V 235.400 C 22.000 235.455 22.045 235.500 22.100 235.500 H 28.100 C 28.155 235.500 28.200 235.455 28.200 235.400 V 232.500 C 28.200 232.400 28.100 232.500 28.200 232.500 H 34.000 C 34.100 232.500 34.000 232.400 34.000 232.500 V 235.400 C 34.000 235.455 34.045 235.500 34.100 235.500 H 40.100 C 40.155 235.500 40.200 235.455 40.200 235.400 V 232.500 C 40.200 232.400 40.100 232.500 40.200 232.500 H 46.000 C 46.100 232.500 46.000 232.400 46.000 232.500 V 235.400 C 46.000 235.455 46.045 235.500 46.100 235.500 H 52.100 C 52.155 235.500 52.200 235.455 52.200 235.400 V 232.500 C 52.200 232.400 52.100 232.500 52.200 232.500 H 58.000 C 58.100 232.500 58.000 232.400 58.000 232.500 V 235.400 C 58.000 235.455 58.045 235.500 58.100 235.500 H 64.100 C 64.155 235.500 64.200 235.455 64.200 235.400 V 232.500 C 64.200 232.400 64.100 232.500 64.200 232.500 H 73.100 H 76.100 C 76.155 232.500 76.200 232.455 76.200 232.400 V 222.400 C 76.200 222.345 76.155 222.300 76.100 222.300 H 73.200 C 73.100 222.300 73.200 222.400 73.200 222.300 V 216.500 C 73.200 216.400 73.100 216.500 73.200 216.500 H 76.100 C 76.155 216.500 76.200 216.455 76.200 216.400 V 206.400 C 76.200 206.345 76.155 206.300 76.100 206.300 H 73.100 H 13.100 H 10.100 C 10.045 206.300 10.000 206.345 10.000 206.400 V 216.400 C 10.000 216.455 10.045 216.500 10.100 216.500 H 13.000 C 13.100 216.500 13.000 216.400 13.000 216.500 V 222.300 C 13.000 222.400 13.100 222.300 13.000 222.300 H 10.100 C 10.045 222.300 10.000 222.345 10.000 222.400 V 232.400 C 10.000 232.455 10.045 232.500 10.100 232.500 H 13.100"
       stroke="rgb(0,0,0)"
       stroke-width="0.20"
       id="path13" />
  </g>
  <g
     id="g41"
     transform="translate(-2.6956928,-33.426591)">
    <path
       d="m 28.173079,275.84017 h -2.9 c -0.1,0 0,0.1 0,0 v -2.8 c 0,-0.1 -0.1,0 0,0 h 5.8 c 0.1,0 0,-0.1 0,0 v 2.8 c 0,0.1 0.1,0 0,0 z"
       stroke="#0000ff"
       stroke-width="0.2"
       id="path11-5"
       style="fill:none;stroke-linecap:round;stroke-linejoin:round" />
    <path
       d="m 63.173079,273.04017 h 2.9 c 0.1,0 0,-0.1 0,0 v 2.8 c 0,0.1 0.1,0 0,0 h -5.8 c -0.1,0 0,0.1 0,0 v -2.8 c 0,-0.1 -0.1,0 0,0 z"
       stroke="#0000ff"
       stroke-width="0.2"
       id="path12-1"
       style="fill:none;stroke-linecap:round;stroke-linejoin:round" />
    <path
       id="path13-1"
       style="fill:none;stroke:#000000;stroke-width:0.2;stroke-linecap:round;stroke-linejoin:round;stroke-dasharray:none"
       d="m 12.673267,269.84042 c -0.055,0 -0.100252,0.0447 -0.100252,0.0997 v 9.99991 c 0,0.055 0.04525,0.10025 0.100252,0.10025 h 2.899565 v 5.79964 h -2.899565 c -0.055,0 -0.100252,0.0453 -0.100252,0.10026 v 9.9999 c 0,0.055 0.04525,0.10026 0.100252,0.10026 h 2.999817 8.900232 v 2.89956 c 0,0.055 0.04474,0.10025 0.09974,0.10025 h 6.00015 c 0.055,0 0.09974,-0.0453 0.09974,-0.10025 v -2.89956 h 5.800163 v 2.89956 c 0,0.055 0.04473,0.10025 0.09973,0.10025 h 6.000151 c 0.055,0 0.100252,-0.0453 0.100252,-0.10025 v -2.89956 h 5.799646 v 2.89956 c 0,0.055 0.04525,0.10025 0.100252,0.10025 h 6.000151 c 0.055,0 0.09974,-0.0453 0.09974,-0.10025 v -2.89956 h 5.800163 v 2.89956 c 0,0.055 0.04474,0.10025 0.09974,0.10025 h 6.00015 c 0.055,0 0.100252,-0.0453 0.100252,-0.10025 v -2.89956 h 8.899712 2.99982 c 0.055,0 0.10025,-0.0453 0.10025,-0.10026 v -9.9999 c 0,-0.055 -0.04525,-0.10026 -0.10025,-0.10026 h -2.89956 v -5.79964 h 2.89956 c 0.055,0 0.10025,-0.0453 0.10025,-0.10025 v -9.99991 c 0,-0.055 -0.04525,-0.0997 -0.10025,-0.0997 h -2.99982 -59.999952 z m 11.745537,10.01645 h 13.950053 v 13.56764 H 24.418804 Z" />
  </g>
  <g
     id="p-5"
     style="fill:none;stroke-linecap:round;stroke-linejoin:round;">
    <path
       d="M 18.500 197.700 C 18.500 197.968 18.423 198.231 18.278 198.457 C 18.133 198.683 17.926 198.862 17.682 198.973 C 17.437 199.085 17.166 199.124 16.901 199.086 C 16.635 199.048 16.386 198.934 16.183 198.758 C 15.980 198.582 15.832 198.352 15.757 198.094 C 15.681 197.837 15.681 197.563 15.757 197.306 C 15.832 197.048 15.980 196.818 16.183 196.642 C 16.386 196.466 16.635 196.352 16.901 196.314 C 17.166 196.276 17.437 196.315 17.682 196.427 C 17.926 196.538 18.133 196.717 18.278 196.943 C 18.423 197.169 18.500 197.432 18.500 197.700 Z"
       stroke="rgb(0,0,255)"
       stroke-width="0.20"
       id="path14" />
    <text
       dominant-baseline="hanging"
       font-size="4px"
       style="font-family: sans-serif ; font-weight: normal; font-style: normal; fill: rgb(255,0,0)"
       text-anchor="middle"
       transform="matrix( 1.000 0.000 0.000 1.000 57.100 161.300 )"
       id="text14">Bottom</text>
    <path
       d="M 17.100 204.800 H 27.100 H 36.100 C 36.155 204.800 36.200 204.755 36.200 204.700 V 201.800 C 36.200 201.700 36.100 201.800 36.200 201.800 H 42.000 C 42.100 201.800 42.000 201.700 42.000 201.800 V 204.700 C 42.000 204.755 42.045 204.800 42.100 204.800 H 48.100 C 48.155 204.800 48.200 204.755 48.200 204.700 V 201.800 C 48.200 201.700 48.100 201.800 48.200 201.800 H 54.000 C 54.100 201.800 54.000 201.700 54.000 201.800 V 204.700 C 54.000 204.755 54.045 204.800 54.100 204.800 H 60.100 C 60.155 204.800 60.200 204.755 60.200 204.700 V 201.800 C 60.200 201.700 60.100 201.800 60.200 201.800 H 66.000 C 66.100 201.800 66.000 201.700 66.000 201.800 V 204.700 C 66.000 204.755 66.045 204.800 66.100 204.800 H 72.100 C 72.155 204.800 72.200 204.755 72.200 204.700 V 201.800 C 72.200 201.700 72.100 201.800 72.200 201.800 H 78.000 C 78.100 201.800 78.000 201.700 78.000 201.800 V 204.700 C 78.000 204.755 78.045 204.800 78.100 204.800 H 87.100 H 97.100 C 98.346 204.800 99.571 204.472 100.650 203.849 C 101.729 203.226 102.626 202.329 103.249 201.250 C 103.872 200.171 104.200 198.946 104.200 197.700 V 128.700 C 104.200 127.454 103.872 126.229 103.249 125.150 C 102.626 124.071 101.729 123.174 100.650 122.551 C 99.571 121.928 98.346 121.600 97.100 121.600 H 87.100 H 78.100 C 78.045 121.600 78.000 121.645 78.000 121.700 V 124.600 C 78.000 124.700 78.100 124.600 78.000 124.600 H 72.200 C 72.100 124.600 72.200 124.700 72.200 124.600 V 121.700 C 72.200 121.645 72.155 121.600 72.100 121.600 H 66.100 C 66.045 121.600 66.000 121.645 66.000 121.700 V 124.600 C 66.000 124.700 66.100 124.600 66.000 124.600 H 60.200 C 60.100 124.600 60.200 124.700 60.200 124.600 V 121.700 C 60.200 121.645 60.155 121.600 60.100 121.600 H 54.100 C 54.045 121.600 54.000 121.645 54.000 121.700 V 124.600 C 54.000 124.700 54.100 124.600 54.000 124.600 H 48.200 C 48.100 124.600 48.200 124.700 48.200 124.600 V 121.700 C 48.200 121.645 48.155 121.600 48.100 121.600 H 42.100 C 42.045 121.600 42.000 121.645 42.000 121.700 V 124.600 C 42.000 124.700 42.100 124.600 42.000 124.600 H 36.200 C 36.100 124.600 36.200 124.700 36.200 124.600 V 121.700 C 36.200 121.645 36.155 121.600 36.100 121.600 H 27.100 H 17.100 C 15.854 121.600 14.629 121.928 13.550 122.551 C 12.471 123.174 11.574 124.071 10.951 125.150 C 10.328 126.229 10.000 127.454 10.000 128.700 V 197.700 C 10.000 198.946 10.328 200.171 10.951 201.250 C 11.574 202.329 12.471 203.226 13.550 203.849 C 14.629 204.472 15.854 204.800 17.100 204.800"
       stroke="rgb(0,0,0)"
       stroke-width="0.20"
       id="path15" />
    <path
       d="M 97.100 196.300 C 97.368 196.300 97.631 196.377 97.857 196.522 C 98.083 196.667 98.262 196.874 98.373 197.118 C 98.485 197.363 98.524 197.634 98.486 197.899 C 98.448 198.165 98.334 198.414 98.158 198.617 C 97.982 198.820 97.752 198.968 97.494 199.043 C 97.237 199.119 96.963 199.119 96.706 199.043 C 96.448 198.968 96.218 198.820 96.042 198.617 C 95.866 198.414 95.752 198.165 95.714 197.899 C 95.676 197.634 95.715 197.363 95.827 197.118 C 95.938 196.874 96.117 196.667 96.343 196.522 C 96.569 196.377 96.832 196.300 97.100 196.300 Z"
       stroke="rgb(0,0,255)"
       stroke-width="0.20"
       id="path16" />
    <path
       d="M 90.100 187.200 V 190.100 C 90.100 190.200 90.200 190.100 90.100 190.100 H 87.300 C 87.200 190.100 87.300 190.200 87.300 190.100 V 184.300 C 87.300 184.200 87.200 184.300 87.300 184.300 H 90.100 C 90.200 184.300 90.100 184.200 90.100 184.300 V 187.200 Z"
       stroke="rgb(0,0,255)"
       stroke-width="0.20"
       id="path17" />
    <path
       d="M 90.100 175.200 V 178.100 C 90.100 178.200 90.200 178.100 90.100 178.100 H 87.300 C 87.200 178.100 87.300 178.200 87.300 178.100 V 172.300 C 87.300 172.200 87.200 172.300 87.300 172.300 H 90.100 C 90.200 172.300 90.100 172.200 90.100 172.300 V 175.200 Z"
       stroke="rgb(0,0,255)"
       stroke-width="0.20"
       id="path18" />
    <path
       d="M 90.100 163.200 V 166.100 C 90.100 166.200 90.200 166.100 90.100 166.100 H 87.300 C 87.200 166.100 87.300 166.200 87.300 166.100 V 160.300 C 87.300 160.200 87.200 160.300 87.300 160.300 H 90.100 C 90.200 160.300 90.100 160.200 90.100 160.300 V 163.200 Z"
       stroke="rgb(0,0,255)"
       stroke-width="0.20"
       id="path19" />
    <path
       d="M 90.100 151.200 V 154.100 C 90.100 154.200 90.200 154.100 90.100 154.100 H 87.300 C 87.200 154.100 87.300 154.200 87.300 154.100 V 148.300 C 87.300 148.200 87.200 148.300 87.300 148.300 H 90.100 C 90.200 148.300 90.100 148.200 90.100 148.300 V 151.200 Z"
       stroke="rgb(0,0,255)"
       stroke-width="0.20"
       id="path20" />
    <path
       d="M 90.100 139.200 V 142.100 C 90.100 142.200 90.200 142.100 90.100 142.100 H 87.300 C 87.200 142.100 87.300 142.200 87.300 142.100 V 136.300 C 87.300 136.200 87.200 136.300 87.300 136.300 H 90.100 C 90.200 136.300 90.100 136.200 90.100 136.300 V 139.200 Z"
       stroke="rgb(0,0,255)"
       stroke-width="0.20"
       id="path21" />
    <path
       d="M 95.700 128.700 C 95.700 128.432 95.777 128.169 95.922 127.943 C 96.067 127.717 96.274 127.538 96.518 127.427 C 96.763 127.315 97.034 127.276 97.299 127.314 C 97.565 127.352 97.814 127.466 98.017 127.642 C 98.220 127.818 98.368 128.048 98.443 128.306 C 98.519 128.563 98.519 128.837 98.443 129.094 C 98.368 129.352 98.220 129.582 98.017 129.758 C 97.814 129.934 97.565 130.048 97.299 130.086 C 97.034 130.124 96.763 130.085 96.518 129.973 C 96.274 129.862 96.067 129.683 95.922 129.457 C 95.777 129.231 95.700 128.968 95.700 128.700 Z"
       stroke="rgb(0,0,255)"
       stroke-width="0.20"
       id="path22" />
    <path
       d="M 17.100 130.100 C 16.832 130.100 16.569 130.023 16.343 129.878 C 16.117 129.733 15.938 129.526 15.827 129.282 C 15.715 129.037 15.676 128.766 15.714 128.501 C 15.752 128.235 15.866 127.986 16.042 127.783 C 16.218 127.580 16.448 127.432 16.706 127.357 C 16.963 127.281 17.237 127.281 17.494 127.357 C 17.752 127.432 17.982 127.580 18.158 127.783 C 18.334 127.986 18.448 128.235 18.486 128.501 C 18.524 128.766 18.485 129.037 18.373 129.282 C 18.262 129.526 18.083 129.733 17.857 129.878 C 17.631 130.023 17.368 130.100 17.100 130.100 Z"
       stroke="rgb(0,0,255)"
       stroke-width="0.20"
       id="path23" />
    <path
       d="M 24.100 139.200 V 136.300 C 24.100 136.200 24.000 136.300 24.100 136.300 H 26.900 C 27.000 136.300 26.900 136.200 26.900 136.300 V 142.100 C 26.900 142.200 27.000 142.100 26.900 142.100 H 24.100 C 24.000 142.100 24.100 142.200 24.100 142.100 V 139.200 Z"
       stroke="rgb(0,0,255)"
       stroke-width="0.20"
       id="path24" />
    <path
       d="M 24.100 151.200 V 148.300 C 24.100 148.200 24.000 148.300 24.100 148.300 H 26.900 C 27.000 148.300 26.900 148.200 26.900 148.300 V 154.100 C 26.900 154.200 27.000 154.100 26.900 154.100 H 24.100 C 24.000 154.100 24.100 154.200 24.100 154.100 V 151.200 Z"
       stroke="rgb(0,0,255)"
       stroke-width="0.20"
       id="path25" />
    <path
       d="M 24.100 163.200 V 160.300 C 24.100 160.200 24.000 160.300 24.100 160.300 H 26.900 C 27.000 160.300 26.900 160.200 26.900 160.300 V 166.100 C 26.900 166.200 27.000 166.100 26.900 166.100 H 24.100 C 24.000 166.100 24.100 166.200 24.100 166.100 V 163.200 Z"
       stroke="rgb(0,0,255)"
       stroke-width="0.20"
       id="path26" />
    <path
       d="M 24.100 175.200 V 172.300 C 24.100 172.200 24.000 172.300 24.100 172.300 H 26.900 C 27.000 172.300 26.900 172.200 26.900 172.300 V 178.100 C 26.900 178.200 27.000 178.100 26.900 178.100 H 24.100 C 24.000 178.100 24.100 178.200 24.100 178.100 V 175.200 Z"
       stroke="rgb(0,0,255)"
       stroke-width="0.20"
       id="path27" />
    <path
       d="M 24.100 187.200 V 184.300 C 24.100 184.200 24.000 184.300 24.100 184.300 H 26.900 C 27.000 184.300 26.900 184.200 26.900 184.300 V 190.100 C 26.900 190.200 27.000 190.100 26.900 190.100 H 24.100 C 24.000 190.100 24.100 190.200 24.100 190.100 V 187.200 Z"
       stroke="rgb(0,0,255)"
       stroke-width="0.20"
       id="path28" />
  </g>
  <g
     id="p-6"
     style="fill:none;stroke-linecap:round;stroke-linejoin:round;">
    <path
       d="M 19.833 111.667 C 19.833 111.935 19.756 112.198 19.611 112.424 C 19.466 112.649 19.259 112.829 19.015 112.940 C 18.771 113.052 18.500 113.091 18.234 113.052 C 17.968 113.014 17.719 112.900 17.517 112.725 C 17.314 112.549 17.166 112.319 17.090 112.061 C 17.014 111.804 17.014 111.530 17.090 111.272 C 17.166 111.015 17.314 110.784 17.517 110.609 C 17.719 110.433 17.968 110.319 18.234 110.281 C 18.500 110.243 18.771 110.282 19.015 110.393 C 19.259 110.505 19.466 110.684 19.611 110.910 C 19.756 111.136 19.833 111.398 19.833 111.667 Z"
       stroke="rgb(0,0,255)"
       stroke-width="0.20"
       id="path29" />
    <text
       dominant-baseline="hanging"
       font-size="4px"
       style="font-family: sans-serif ; font-weight: normal; font-style: normal; fill: rgb(255,0,0)"
       text-anchor="middle"
       transform="matrix( 1.000 0.000 0.000 1.000 40.100 79.600 )"
       id="text29">Top</text>
    <path
       d="M 10.100 120.100 H 70.100 C 70.155 120.100 70.200 120.055 70.200 120.000 V 43.000 C 70.200 42.945 70.155 42.900 70.100 42.900 H 10.100 C 10.045 42.900 10.000 42.945 10.000 43.000 V 120.000 C 10.000 120.055 10.045 120.100 10.100 120.100"
       stroke="rgb(0,0,0)"
       stroke-width="0.20"
       id="path30" />
    <path
       d="M 61.767 110.267 C 62.035 110.267 62.298 110.344 62.524 110.489 C 62.749 110.634 62.929 110.841 63.040 111.085 C 63.152 111.329 63.191 111.600 63.152 111.866 C 63.114 112.132 63.000 112.381 62.825 112.583 C 62.649 112.786 62.419 112.934 62.161 113.010 C 61.904 113.086 61.630 113.086 61.372 113.010 C 61.115 112.934 60.884 112.786 60.709 112.583 C 60.533 112.381 60.419 112.132 60.381 111.866 C 60.343 111.600 60.382 111.329 60.493 111.085 C 60.605 110.841 60.784 110.634 61.010 110.489 C 61.236 110.344 61.498 110.267 61.767 110.267 Z"
       stroke="rgb(0,0,255)"
       stroke-width="0.20"
       id="path31" />
    <path
       d="M 60.367 51.333 C 60.367 51.065 60.444 50.802 60.589 50.576 C 60.734 50.351 60.941 50.171 61.185 50.060 C 61.429 49.948 61.700 49.909 61.966 49.948 C 62.232 49.986 62.481 50.100 62.683 50.275 C 62.886 50.451 63.034 50.681 63.110 50.939 C 63.186 51.196 63.186 51.470 63.110 51.728 C 63.034 51.985 62.886 52.216 62.683 52.391 C 62.481 52.567 62.232 52.681 61.966 52.719 C 61.700 52.757 61.429 52.718 61.185 52.607 C 60.941 52.495 60.734 52.316 60.589 52.090 C 60.444 51.864 60.367 51.602 60.367 51.333 Z"
       stroke="rgb(0,0,255)"
       stroke-width="0.20"
       id="path32" />
    <path
       d="M 18.433 52.733 C 18.165 52.733 17.902 52.656 17.676 52.511 C 17.451 52.366 17.271 52.159 17.160 51.915 C 17.048 51.671 17.009 51.400 17.048 51.134 C 17.086 50.868 17.200 50.619 17.375 50.417 C 17.551 50.214 17.781 50.066 18.039 49.990 C 18.296 49.914 18.570 49.914 18.828 49.990 C 19.085 50.066 19.316 50.214 19.491 50.417 C 19.667 50.619 19.781 50.868 19.819 51.134 C 19.857 51.400 19.818 51.671 19.707 51.915 C 19.595 52.159 19.416 52.366 19.190 52.511 C 18.964 52.656 18.702 52.733 18.433 52.733 Z"
       stroke="rgb(0,0,255)"
       stroke-width="0.20"
       id="path33" />
  </g>
  <g
     id="p-7"
     style="fill:none;stroke-linecap:round;stroke-linejoin:round;">
    <path
       d="M 17.908 38.400 H 27.308 C 27.408 38.400 27.308 38.300 27.308 38.400 V 41.300 C 27.308 41.355 27.353 41.400 27.408 41.400 H 33.408 C 33.464 41.400 33.508 41.355 33.508 41.300 V 38.400 C 33.508 38.300 33.408 38.400 33.508 38.400 H 42.908 C 42.964 38.400 43.008 38.355 43.008 38.300 V 28.900 C 43.008 28.800 42.908 28.900 43.008 28.900 H 45.908 C 45.964 28.900 46.008 28.855 46.008 28.800 V 22.800 C 46.008 22.745 45.964 22.700 45.908 22.700 H 43.008 C 42.908 22.700 43.008 22.800 43.008 22.700 V 13.300 C 43.008 13.245 42.964 13.200 42.908 13.200 C 42.882 13.200 42.856 13.211 42.838 13.229 L 17.838 38.229 C 17.819 38.248 17.808 38.273 17.808 38.300 C 17.808 38.355 17.853 38.400 17.908 38.400 Z"
       stroke="rgb(0,0,0)"
       stroke-width="0.20"
       id="path34" />
    <path
       d="M 34.575 29.067 C 34.748 29.067 34.916 29.116 35.062 29.210 C 35.207 29.303 35.322 29.436 35.394 29.593 C 35.465 29.750 35.490 29.924 35.466 30.095 C 35.441 30.266 35.368 30.426 35.255 30.556 C 35.142 30.686 34.994 30.782 34.829 30.830 C 34.663 30.879 34.487 30.879 34.321 30.830 C 34.156 30.782 34.008 30.686 33.895 30.556 C 33.782 30.426 33.709 30.266 33.684 30.095 C 33.660 29.924 33.685 29.750 33.756 29.593 C 33.828 29.436 33.943 29.303 34.088 29.210 C 34.234 29.116 34.402 29.067 34.575 29.067 Z"
       stroke="rgb(0,0,255)"
       stroke-width="0.20"
       id="path35" />
    <path
       d="M 38.100 13.000 H 28.700 C 28.600 13.000 28.700 13.100 28.700 13.000 V 10.100 C 28.700 10.045 28.655 10.000 28.600 10.000 H 22.600 C 22.545 10.000 22.500 10.045 22.500 10.100 V 13.000 C 22.500 13.100 22.600 13.000 22.500 13.000 H 13.100 C 13.045 13.000 13.000 13.045 13.000 13.100 V 22.500 C 13.000 22.600 13.100 22.500 13.000 22.500 H 10.100 C 10.045 22.500 10.000 22.545 10.000 22.600 V 28.600 C 10.000 28.655 10.045 28.700 10.100 28.700 H 13.000 C 13.100 28.700 13.000 28.600 13.000 28.700 V 38.100 C 13.000 38.155 13.045 38.200 13.100 38.200 C 13.127 38.200 13.152 38.189 13.171 38.171 L 38.171 13.171 C 38.189 13.152 38.200 13.127 38.200 13.100 C 38.200 13.045 38.155 13.000 38.100 13.000 Z"
       stroke="rgb(0,0,0)"
       stroke-width="0.20"
       id="path36" />
    <path
       d="M 21.433 22.333 C 21.261 22.333 21.092 22.284 20.947 22.190 C 20.802 22.097 20.686 21.964 20.615 21.807 C 20.543 21.650 20.518 21.476 20.542 21.305 C 20.567 21.134 20.640 20.974 20.753 20.844 C 20.866 20.714 21.014 20.618 21.180 20.570 C 21.345 20.521 21.521 20.521 21.687 20.570 C 21.852 20.618 22.001 20.714 22.114 20.844 C 22.226 20.974 22.300 21.134 22.324 21.305 C 22.349 21.476 22.324 21.650 22.252 21.807 C 22.180 21.964 22.065 22.097 21.920 22.190 C 21.775 22.284 21.606 22.333 21.433 22.333 Z"
       stroke="rgb(0,0,255)"
       stroke-width="0.20"
       id="path37" />
    <path
       d="M 55.417 38.400 H 64.817 C 64.917 38.400 64.817 38.300 64.817 38.400 V 41.300 C 64.817 41.355 64.861 41.400 64.917 41.400 H 70.917 C 70.972 41.400 71.017 41.355 71.017 41.300 V 38.400 C 71.017 38.300 70.917 38.400 71.017 38.400 H 80.417 C 80.472 38.400 80.517 38.355 80.517 38.300 V 28.900 C 80.517 28.800 80.417 28.900 80.517 28.900 H 83.417 C 83.472 28.900 83.517 28.855 83.517 28.800 V 22.800 C 83.517 22.745 83.472 22.700 83.417 22.700 H 80.517 C 80.417 22.700 80.517 22.800 80.517 22.700 V 13.300 C 80.517 13.245 80.472 13.200 80.417 13.200 C 80.390 13.200 80.365 13.211 80.346 13.229 L 55.346 38.229 C 55.327 38.248 55.317 38.273 55.317 38.300 C 55.317 38.355 55.361 38.400 55.417 38.400 Z"
       stroke="rgb(0,0,0)"
       stroke-width="0.20"
       id="path38" />
    <path
       d="M 72.083 29.067 C 72.256 29.067 72.425 29.116 72.570 29.210 C 72.715 29.303 72.830 29.436 72.902 29.593 C 72.974 29.750 72.999 29.924 72.974 30.095 C 72.950 30.266 72.876 30.426 72.763 30.556 C 72.651 30.686 72.502 30.782 72.337 30.830 C 72.171 30.879 71.995 30.879 71.830 30.830 C 71.664 30.782 71.516 30.686 71.403 30.556 C 71.290 30.426 71.217 30.266 71.192 30.095 C 71.168 29.924 71.193 29.750 71.265 29.593 C 71.336 29.436 71.452 29.303 71.597 29.210 C 71.742 29.116 71.911 29.067 72.083 29.067 Z"
       stroke="rgb(0,0,255)"
       stroke-width="0.20"
       id="path39" />
    <path
       d="M 75.608 13.000 H 66.208 C 66.108 13.000 66.208 13.100 66.208 13.000 V 10.100 C 66.208 10.045 66.164 10.000 66.108 10.000 H 60.108 C 60.053 10.000 60.008 10.045 60.008 10.100 V 13.000 C 60.008 13.100 60.108 13.000 60.008 13.000 H 50.608 C 50.553 13.000 50.508 13.045 50.508 13.100 V 22.500 C 50.508 22.600 50.608 22.500 50.508 22.500 H 47.608 C 47.553 22.500 47.508 22.545 47.508 22.600 V 28.600 C 47.508 28.655 47.553 28.700 47.608 28.700 H 50.508 C 50.608 28.700 50.508 28.600 50.508 28.700 V 38.100 C 50.508 38.155 50.553 38.200 50.608 38.200 C 50.635 38.200 50.660 38.189 50.679 38.171 L 75.679 13.171 C 75.698 13.152 75.708 13.127 75.708 13.100 C 75.708 13.045 75.664 13.000 75.608 13.000 Z"
       stroke="rgb(0,0,0)"
       stroke-width="0.20"
       id="path40" />
    <path
       d="M 58.942 22.333 C 58.769 22.333 58.600 22.284 58.455 22.190 C 58.310 22.097 58.195 21.964 58.123 21.807 C 58.051 21.650 58.026 21.476 58.051 21.305 C 58.075 21.134 58.148 20.974 58.261 20.844 C 58.374 20.714 58.523 20.618 58.688 20.570 C 58.854 20.521 59.030 20.521 59.195 20.570 C 59.361 20.618 59.509 20.714 59.622 20.844 C 59.735 20.974 59.808 21.134 59.832 21.305 C 59.857 21.476 59.832 21.650 59.760 21.807 C 59.689 21.964 59.573 22.097 59.428 22.190 C 59.283 22.284 59.114 22.333 58.942 22.333 Z"
       stroke="rgb(0,0,255)"
       stroke-width="0.20"
       id="path41" />
  </g>
  <ellipse
     style="fill:none;stroke:#0000ff;stroke-width:0.265354;stroke-dasharray:none"
     id="path42"
     cx="119.3"
     cy="220.89999"
     rx="6.6864762"
     ry="6.5911689" />
  <ellipse
     style="fill:none;stroke:#0000ff;stroke-width:0.2;stroke-dasharray:none"
     id="path46"
     cx="133.48386"
     cy="459.34607"
     rx="7.0088015"
     ry="1.3478464" />
  <circle
     style="fill:none;stroke:#0000ff;stroke-width:0.2;stroke-dasharray:none"
     id="circle51"
     cx="133.48386"
     cy="459.34607"
     r="13.478464" />
</svg>
